<svg xmlns="http://www.w3.org/2000/svg" viewBox="0 0 24.56 24.56"><defs><style>.cls-1,.cls-2{fill:none;stroke-width:0.7px;}.cls-1,.cls-2,.cls-3{stroke:#000;}.cls-1{stroke-linecap:round;stroke-linejoin:round;}.cls-2,.cls-3{stroke-miterlimit:10;}.cls-3{stroke-width:0.2px;}</style></defs><title>course-6</title><g id="Layer_2" data-name="Layer 2"><g id="courses-bold"><g id="course-6"><path class="cls-1" d="M10.77,15.49,10,16.86a.77.77,0,0,1-.44.33l-1.26.3a.47.47,0,0,0-.36.46l0,2.34"/><polyline class="cls-1" points="12.22 9.51 12.22 9.51 10.12 14.27 11.22 16.18 16.27 16.77"/><line class="cls-1" x1="10.65" y1="15.35" x2="16.3" y2="12.14"/><path class="cls-2" d="M3.5,20.29a2.27,2.27,0,0,0,2-1.1.29.29,0,0,1,.25-.14.33.33,0,0,1,.25.14,2.26,2.26,0,0,0,2,1.1,2.29,2.29,0,0,0,2-1.1.28.28,0,0,1,.47,0,2.26,2.26,0,0,0,1.95,1.1,2.29,2.29,0,0,0,2-1.1.27.27,0,0,1,.46,0,2.29,2.29,0,0,0,2,1.1,2.26,2.26,0,0,0,1.95-1.1.29.29,0,0,1,.25-.14.33.33,0,0,1,.25.14,2.27,2.27,0,0,0,1.95,1.1"/><path class="cls-2" d="M11,.41A11.7,11.7,0,0,0,5.81,2.25,11.58,11.58,0,0,0,3.18,4.56,12.44,12.44,0,0,0,.65,9.47a13.31,13.31,0,0,0,0,5.62,12.3,12.3,0,0,0,2.84,5.25A11.76,11.76,0,0,0,8,23.42a11.92,11.92,0,0,0,6,.67,10.52,10.52,0,0,0,3.14-.93A11.74,11.74,0,0,0,21.34,20a12.34,12.34,0,0,0,2.55-4.89,13,13,0,0,0,0-5.63A12.14,12.14,0,0,0,20.13,3.3,11.87,11.87,0,0,0,11,.41Z"/><path class="cls-3" d="M20.32,12.79a.19.19,0,0,0-.19-.21.19.19,0,0,0-.21.18,2.71,2.71,0,0,1,0,.41l-1.58,1a.19.19,0,0,0-.07.27.22.22,0,0,0,.12.09.26.26,0,0,0,.15,0l1.28-.77a4.93,4.93,0,0,1-2.23,3,5,5,0,0,1-1.19.52,5.24,5.24,0,0,0,.74-1.91l.75-.45a.2.2,0,0,0,.07-.28.2.2,0,0,0-.27-.06l-.49.29a.2.2,0,0,1,0-.07,5.3,5.3,0,0,0-.65-2.92l2.8-1.7A4.94,4.94,0,0,1,19.91,12a.19.19,0,0,0,.21.18.2.2,0,0,0,.18-.22,5.31,5.31,0,0,0-8-4,5.39,5.39,0,0,0-1.45,1.28.21.21,0,0,0,0,.23.2.2,0,0,0,.21.09,4.92,4.92,0,0,1,4.73,7.87.2.2,0,0,0,0,.22.18.18,0,0,0,.12.09.14.14,0,0,0,.09,0A5.16,5.16,0,0,0,17.75,17,5.3,5.3,0,0,0,20.32,12.79ZM14,9.53l-.06,0,1.57-.95a.2.2,0,0,0,.06-.27.19.19,0,0,0-.27-.07L13.49,9.33a5.16,5.16,0,0,0-2-.25,4.68,4.68,0,0,1,1-.8,4.89,4.89,0,0,1,3.69-.57l-.29.18a.19.19,0,0,0-.06.27.16.16,0,0,0,.12.09.2.2,0,0,0,.15,0l.6-.36a4.89,4.89,0,0,1,2.43,1.92l-2.81,1.69A5.27,5.27,0,0,0,14,9.53Z"/><circle class="cls-1" cx="7.05" cy="15.92" r="0.85"/></g></g></g></svg>