<svg xmlns="http://www.w3.org/2000/svg" viewBox="0 0 23.35 23.34"><defs><style>.cls-1,.cls-2{stroke:#000;}.cls-1{stroke-miterlimit:10;stroke-width:0.4px;}.cls-2{fill:none;stroke-linejoin:round;stroke-width:0.7px;}</style></defs><title>eco-power</title><g id="Layer_2" data-name="Layer 2"><g id="eco-bold"><g id="eco-power"><path class="cls-1" d="M11.67,7.59a4.06,4.06,0,1,0,4.06,4.06A4.06,4.06,0,0,0,11.67,7.59Zm0,7.74a3.7,3.7,0,1,1,3.7-3.68A3.7,3.7,0,0,1,11.67,15.33Z"/><path class="cls-1" d="M11.68,6.67a.17.17,0,0,0,.18-.17V4.71a.17.17,0,0,0-.18-.18.17.17,0,0,0-.17.18V6.5A.18.18,0,0,0,11.68,6.67Z"/><path class="cls-1" d="M11.86,18.64V16.85a.17.17,0,0,0-.18-.18.17.17,0,0,0-.17.18v1.79a.17.17,0,0,0,.17.18A.18.18,0,0,0,11.86,18.64Z"/><path class="cls-1" d="M14.12,7.32a.13.13,0,0,0,.09,0,.24.24,0,0,0,.16-.09l.89-1.56a.18.18,0,0,0-.32-.18L14,7.07A.21.21,0,0,0,14.12,7.32Z"/><path class="cls-1" d="M16.17,9.16l1.54-.91A.19.19,0,0,0,17.78,8a.19.19,0,0,0-.25-.07L16,8.86a.2.2,0,0,0-.07.25.2.2,0,0,0,.16.09A.13.13,0,0,0,16.17,9.16Z"/><path class="cls-1" d="M18.6,11.34h0l-1.78,0a.18.18,0,0,0-.18.18.18.18,0,0,0,.18.17h0l1.78,0a.18.18,0,0,0,.18-.18A.19.19,0,0,0,18.6,11.34Z"/><path class="cls-1" d="M17.84,14.81,16.26,14A.18.18,0,0,0,16,14a.18.18,0,0,0,.07.25l1.58.86a.13.13,0,0,0,.09,0,.2.2,0,0,0,.16-.09A.2.2,0,0,0,17.84,14.81Z"/><path class="cls-1" d="M14.51,15.94a.18.18,0,0,0-.25-.06.17.17,0,0,0,0,.25l.93,1.52a.16.16,0,0,0,.16.09h.09a.18.18,0,0,0,0-.25Z"/><path class="cls-1" d="M8.43,18a.2.2,0,0,0,.16-.09l.84-1.59A.18.18,0,0,0,9.36,16a.17.17,0,0,0-.25.07l-.84,1.59a.17.17,0,0,0,.07.25A.15.15,0,0,0,8.43,18Z"/><path class="cls-1" d="M7.46,14.31a.17.17,0,0,0-.25-.05l-1.5,1a.17.17,0,0,0,0,.25.16.16,0,0,0,.14.09.19.19,0,0,0,.09,0l1.5-1A.16.16,0,0,0,7.46,14.31Z"/><path class="cls-1" d="M6.69,11.9a.16.16,0,0,0-.17-.17l-1.79.09a.15.15,0,0,0-.16.18.19.19,0,0,0,.18.18h0l1.79-.09A.21.21,0,0,0,6.69,11.9Z"/><path class="cls-1" d="M5.39,8.66,7,9.46s0,0,.09,0a.17.17,0,0,0,.16-.09.16.16,0,0,0-.07-.23l-1.59-.8a.16.16,0,0,0-.23.07A.14.14,0,0,0,5.39,8.66Z"/><path class="cls-1" d="M8.66,7.44a.15.15,0,0,0,.14.07.2.2,0,0,0,.11,0A.18.18,0,0,0,9,7.23L8,5.74a.18.18,0,0,0-.25,0,.17.17,0,0,0-.05.25Z"/><path class="cls-1" d="M13,12l-2.15-1L13,9.68a.19.19,0,0,0,.07-.25.19.19,0,0,0-.25-.07L10.4,10.77a.17.17,0,0,0-.09.16.16.16,0,0,0,.1.16l2.19,1-2.22,1.48a.18.18,0,0,0-.06.25.17.17,0,0,0,.15.08.3.3,0,0,0,.11,0l2.48-1.66a.15.15,0,0,0,.07-.16A.82.82,0,0,0,13,12Z"/><path class="cls-2" d="M10.44.41A11.11,11.11,0,0,0,5.53,2.15,11.55,11.55,0,0,0,3,4.34,11.78,11.78,0,0,0,.64,9a12.33,12.33,0,0,0,0,5.34,11.58,11.58,0,0,0,2.69,5,11.35,11.35,0,0,0,4.28,2.92,11.52,11.52,0,0,0,5.73.64,10,10,0,0,0,3-.89,11,11,0,0,0,4-3,11.68,11.68,0,0,0,2.42-4.64,12.33,12.33,0,0,0,0-5.34,11.48,11.48,0,0,0-3.6-5.91A11.14,11.14,0,0,0,10.44.41Z"/></g></g></g></svg>