<svg xmlns="http://www.w3.org/2000/svg" viewBox="0 0 24.56 24.56"><defs><style>.cls-1,.cls-2{fill:none;stroke-width:0.7px;}.cls-1,.cls-2,.cls-3{stroke:#000;}.cls-1,.cls-3{stroke-miterlimit:10;}.cls-2{stroke-linecap:round;stroke-linejoin:round;}.cls-3{stroke-width:0.2px;}</style></defs><title>insurance</title><g id="Layer_2" data-name="Layer 2"><g id="features-bold"><g id="insurance"><path class="cls-1" d="M11,.41A11.7,11.7,0,0,0,5.81,2.25,11.58,11.58,0,0,0,3.18,4.56,12.44,12.44,0,0,0,.65,9.47a13.31,13.31,0,0,0,0,5.62,12.3,12.3,0,0,0,2.84,5.25A11.76,11.76,0,0,0,8,23.42a11.92,11.92,0,0,0,6,.67,10.52,10.52,0,0,0,3.14-.93A11.74,11.74,0,0,0,21.34,20a12.34,12.34,0,0,0,2.55-4.89,13,13,0,0,0,0-5.63A12.14,12.14,0,0,0,20.13,3.3,11.87,11.87,0,0,0,11,.41Z"/><path class="cls-2" d="M6.74,22.85v-1.3l-3.1-4.1a.93.93,0,0,1-.2-.55V10.6a.89.89,0,1,1,1.78,0v3.64a1.05,1.05,0,0,0-.58.3,1.2,1.2,0,0,0,0,1.7L6.31,18l.23-.23L4.84,16a.9.9,0,0,1,0-1.26.9.9,0,0,1,.82-.22.92.92,0,0,1,.43.24l3.71,3.81v5.17h0"/><path class="cls-2" d="M17.82,22.64V21.55l3.1-4.1a.93.93,0,0,0,.2-.55V10.6a.89.89,0,1,0-1.78,0v3.64a1.05,1.05,0,0,1,.58.3,1.2,1.2,0,0,1,0,1.7L18.25,18,18,17.75,19.72,16a.9.9,0,0,0,0-1.26.9.9,0,0,0-.82-.22.92.92,0,0,0-.43.24l-3.71,3.81v5.17h0"/><path class="cls-2" d="M14.77,23.76v0"/><polyline class="cls-2" points="8.56 13.06 12.83 18.61 17.2 10.82"/><line class="cls-2" x1="12.85" y1="18.44" x2="13.13" y2="8.58"/><path class="cls-3" d="M14.1,3.51a.2.2,0,1,0-.13.37l.38.16.47,1.82a.2.2,0,0,0,.25.14.18.18,0,0,0,.12-.09.19.19,0,0,0,0-.15l-.38-1.47a5,5,0,0,1,2.28,3,4.85,4.85,0,0,1,.16,1.31,5.33,5.33,0,0,0-1.64-1.27L15.4,6.5a.19.19,0,0,0-.24-.14A.21.21,0,0,0,15,6.6l.15.56-.07,0a5.31,5.31,0,0,0-3-.22L11.23,3.7a4.84,4.84,0,0,1,2,0,.21.21,0,0,0,.24-.17.21.21,0,0,0-.16-.23,5.33,5.33,0,0,0-2.35.08A5.39,5.39,0,0,0,7.06,9.93a5.52,5.52,0,0,0,.83,1.79.21.21,0,0,0,.21.07.2.2,0,0,0,.15-.17A5,5,0,0,1,12,7.36a4.93,4.93,0,0,1,3,.16,5,5,0,0,1,2.33,1.77.19.19,0,0,0,.21.08.19.19,0,0,0,.12-.09.13.13,0,0,0,0-.08,5.46,5.46,0,0,0-.14-2A5.36,5.36,0,0,0,14.1,3.51Zm-5,5.17,0,.05L8.61,6.94a.2.2,0,0,0-.24-.15A.21.21,0,0,0,8.22,7l.55,2.1a5.42,5.42,0,0,0-.83,1.91,4.8,4.8,0,0,1-.49-1.22A5,5,0,0,1,8,6.07l.09.33a.19.19,0,0,0,.24.15.22.22,0,0,0,.13-.1.24.24,0,0,0,0-.15l-.18-.68A5,5,0,0,1,10.84,3.8L11.67,7A5.34,5.34,0,0,0,9.12,8.68Z"/></g></g></g></svg>