<svg xmlns="http://www.w3.org/2000/svg" viewBox="0 0 24.56 24.56"><defs><style>.cls-1,.cls-2{fill:none;stroke-width:0.7px;}.cls-1,.cls-2,.cls-3{stroke:#000;}.cls-1,.cls-3{stroke-miterlimit:10;}.cls-2{stroke-linecap:round;stroke-linejoin:round;}.cls-3{stroke-width:0.2px;}</style></defs><title>kite-2</title><g id="Layer_2" data-name="Layer 2"><g id="equip-bold"><g id="kite-2"><path class="cls-1" d="M11,.41A11.7,11.7,0,0,0,5.81,2.25,11.58,11.58,0,0,0,3.18,4.56,12.44,12.44,0,0,0,.65,9.47a13.31,13.31,0,0,0,0,5.62,12.3,12.3,0,0,0,2.84,5.25A11.76,11.76,0,0,0,8,23.42a11.92,11.92,0,0,0,6,.67,10.52,10.52,0,0,0,3.14-.93A11.74,11.74,0,0,0,21.34,20a12.34,12.34,0,0,0,2.55-4.89,13,13,0,0,0,0-5.63A12.14,12.14,0,0,0,20.13,3.3,11.87,11.87,0,0,0,11,.41Z"/><polyline class="cls-2" points="8.33 13.95 12.6 19.49 16.96 11.7"/><line class="cls-2" x1="12.62" y1="19.32" x2="12.9" y2="9.46"/><path class="cls-3" d="M13.87,4.39a.2.2,0,1,0-.13.37l.38.16.47,1.82a.2.2,0,0,0,.25.14A.18.18,0,0,0,15,6.79a.25.25,0,0,0,0-.15L14.6,5.17a5,5,0,0,1,2.28,3A5.28,5.28,0,0,1,17,9.52,5.33,5.33,0,0,0,15.4,8.25l-.23-.87a.2.2,0,0,0-.39.1l.15.56-.07,0a5.31,5.31,0,0,0-3-.22L11,4.58a4.84,4.84,0,0,1,2,0,.2.2,0,0,0,.23-.17A.19.19,0,0,0,13,4.16a5.28,5.28,0,0,0-2.34.08,5.39,5.39,0,0,0-3.87,6.57,5.14,5.14,0,0,0,.83,1.79.21.21,0,0,0,.21.07A.2.2,0,0,0,8,12.5a5,5,0,0,1,3.71-4.26A5,5,0,0,1,17,10.17a.21.21,0,0,0,.22.08.22.22,0,0,0,.12-.09l0-.08a5.46,5.46,0,0,0-.14-2A5.38,5.38,0,0,0,13.87,4.39Zm-5,5.17-.05,0L8.38,7.82a.2.2,0,1,0-.39.1L8.53,10a5.59,5.59,0,0,0-.82,1.91,4.8,4.8,0,0,1-.49-1.22A4.94,4.94,0,0,1,7.74,7l.09.33a.19.19,0,0,0,.24.15.2.2,0,0,0,.12-.1.19.19,0,0,0,0-.15L8,6.5a5,5,0,0,1,2.57-1.82l.83,3.22A5.34,5.34,0,0,0,8.89,9.56Z"/></g></g></g></svg>