<svg xmlns="http://www.w3.org/2000/svg" viewBox="0 0 24.56 24.56"><defs><style>.cls-1,.cls-2{fill:none;stroke:#000;}.cls-1{stroke-miterlimit:10;stroke-width:0.7px;}.cls-2{stroke-linecap:round;stroke-linejoin:round;stroke-width:0.55px;}</style></defs><title>limnos-c-o</title><g id="Layer_2" data-name="Layer 2"><g id="features-bold"><g id="limnos-c-o"><path class="cls-1" d="M11,.41A11.7,11.7,0,0,0,5.81,2.25,11.58,11.58,0,0,0,3.18,4.56,12.44,12.44,0,0,0,.65,9.47a13.31,13.31,0,0,0,0,5.62,12.3,12.3,0,0,0,2.84,5.25A11.76,11.76,0,0,0,8,23.42a11.92,11.92,0,0,0,6,.67,10.52,10.52,0,0,0,3.14-.93A11.74,11.74,0,0,0,21.34,20a12.34,12.34,0,0,0,2.55-4.89,13,13,0,0,0,0-5.63A12.14,12.14,0,0,0,20.13,3.3,11.87,11.87,0,0,0,11,.41Z"/><path class="cls-2" d="M19.53,6.32A1.27,1.27,0,0,1,20.11,6s0,.06.06.09,0,0-.06.07a0,0,0,0,0,0,0s0,0-.06,0l.06.06c0,.05,0,.11,0,.18s-.1.16-.19.19a.55.55,0,0,1-.21.12h-.06a.19.19,0,0,0-.09.16.49.49,0,0,0,.28.36c.08,0,.17-.16.3-.16-.13.13-.33.16-.36.38a1.2,1.2,0,0,0,.11.4v0a1.57,1.57,0,0,0,0,.16v.06c0,.13.06.21.09.33s0,.19,0,.29a.28.28,0,0,0-.14.12,0,0,0,0,0,0,0,.65.65,0,0,1-.22.11,1.12,1.12,0,0,0-.43.16.67.67,0,0,0-.28.19c-.06.1,0,.19,0,.3a.27.27,0,0,0-.26.1.66.66,0,0,0,0,.31,1.71,1.71,0,0,0-.36.21.88.88,0,0,0-.46.57.78.78,0,0,0-.06.29,3.12,3.12,0,0,0,0,.53,1.18,1.18,0,0,0,.1.25c0,.1,0,.19.09.28a.75.75,0,0,0-.16,0h-.1c-.06-.08-.09-.2-.19-.24s-.2,0-.33,0a.92.92,0,0,0-.4.26.82.82,0,0,0,0,.65.86.86,0,0,0,.13.29c.1,0,.16-.07.25-.07a.25.25,0,0,0,.24,0,3,3,0,0,1-.43.29.29.29,0,0,1-.15,0c-.12,0-.21,0-.31,0s-.31.14-.31.33a.73.73,0,0,0,.1.46c0,.06,0,.09,0,.12a1.41,1.41,0,0,1,.31.1.44.44,0,0,0,.06.22.1.1,0,0,1,.08,0v.08a.64.64,0,0,1-.17.13l-.13-.1c-.09,0-.15.1-.19.16a.61.61,0,0,0,0,.46,3.84,3.84,0,0,0,.13.41c.06.13.22.19.3.33v.13a.14.14,0,0,1,.12-.07l0,0c.22.1.28.38.41.56,0,0,.09,0,.09,0a.82.82,0,0,1,0,.35,1.53,1.53,0,0,0-.49.12c-.07.07-.16.07-.21.11a.61.61,0,0,0-.16.32s0,0,.07,0a.2.2,0,0,0,0,.25c.1.08.11.15.17.24s.06,0,.1,0-.16.16-.24.16a3.06,3.06,0,0,1-1.09-.32,2,2,0,0,0-.43-.14c-.12,0-.21-.16-.37-.09a.3.3,0,0,0-.08-.16c-.1-.1-.1-.22-.16-.28a1.33,1.33,0,0,0-.28-.3.87.87,0,0,1,.15-.2,2.46,2.46,0,0,1,.07-.29s.06-.07.06-.1-.13-.16-.19-.25a2,2,0,0,0-.24-.2c-.16-.1-.38,0-.54-.1a1.78,1.78,0,0,1-.2,0c0-.06,0-.1.07-.13a.31.31,0,0,0-.13-.06L13,15.85a.26.26,0,0,1,.16-.06c0-.06,0-.13-.06-.16s-.26-.17-.38-.26a.28.28,0,0,1-.11-.26.6.6,0,0,1-.29-.16c0,.07-.12.13-.06.22s-.13,0-.19,0,0-.1.06-.16,0,0,.07,0,0-.1-.1-.13a.42.42,0,0,0,.29-.23.93.93,0,0,0,.49.06c.12,0,.18-.1.25-.16s.06-.13.13-.13.05,0,.11,0,0-.09-.07-.16a0,0,0,0,0-.05,0v-.05c0-.06-.09-.09-.12-.15s0-.1,0-.13.2-.19.29-.28.07,0,.1,0a.75.75,0,0,0,0-.15.13.13,0,0,0,.07,0v-.06s0-.06.06-.1,0-.06,0-.06a.37.37,0,0,0,.1-.22,1.46,1.46,0,0,0-.33-.17c-.09,0-.13-.13-.23-.2a.12.12,0,0,1,.1,0v-.22a1.25,1.25,0,0,0-.42-.2,1,1,0,0,0-.42,0c-.16,0-.29,0-.41.06s-.08.15-.08.24a1.43,1.43,0,0,0-.35.06h.1a.63.63,0,0,1-.16.22.1.1,0,0,1-.06,0c0,.07-.1.16-.18.18a.3.3,0,0,0-.15.12l-.29.1c-.06,0,0,.1-.06.15s-.07,0-.1,0a.1.1,0,0,1,0,.06c-.05.06-.15.06-.23.06a1,1,0,0,0-.1.21.43.43,0,0,0,.28-.11c.08-.06.21-.1.3-.16a1.93,1.93,0,0,1,.41.06.39.39,0,0,0,.08.1s-.06,0-.06,0a.06.06,0,0,0,.06.06.18.18,0,0,0,.1-.06c0,.06,0,.09.06.12h.1s0,0,.06.07.16,0,.22,0a.4.4,0,0,1-.1.16.26.26,0,0,0-.22,0,.88.88,0,0,1-.28-.13.25.25,0,0,0-.33,0c-.07,0-.16.06-.19.12a.54.54,0,0,0,0,.22c-.06,0-.16,0-.21.08l-.1.19s0,0,0,.06a1.79,1.79,0,0,0-.22.38c0,.05-.1.05-.16.08s0,.13,0,.16a.27.27,0,0,1-.12.06s0,.07,0,.07,0,0,0,.06,0,0,0,.06a.14.14,0,0,0,0,.1.47.47,0,0,0,.33.2l.1-.1s0-.1,0-.16a.58.58,0,0,1,.12-.1.09.09,0,0,1,0-.06h0a.35.35,0,0,1,.11.09c0,.07-.11.1-.14.19v.14c.06,0,.1.07.14.07s.07-.1.1-.16c0,.09,0,.22.06.31a1.34,1.34,0,0,1,.29-.15c0,.12-.16.15-.23.25s0,.06,0,.1a.09.09,0,0,1,0,.06.91.91,0,0,0,.13.08,1.59,1.59,0,0,0-.06.38c0,.15.19.28.28.39a1.51,1.51,0,0,0,.39.41.09.09,0,0,0,.07.14v.07a.1.1,0,0,0,.06,0,.4.4,0,0,1,0,.15.42.42,0,0,1-.12.1l-.5-.19,0,0h-.26l-.22-.09a.32.32,0,0,0-.11.12c-.06,0-.15,0-.22.1a.3.3,0,0,0-.22-.13c-.14,0-.27,0-.4,0s-.25-.06-.31,0v.13c-.07,0-.08-.1-.11-.16s-.13,0-.16,0H9.11c0-.06,0-.09,0-.12A1.51,1.51,0,0,1,9,17.28a.41.41,0,0,0-.22,0s-.1.07-.11.1H8.59s-.07-.06-.07-.1-.06.1-.09.16,0,0,0,.06-.06,0-.13.05a.18.18,0,0,0,0-.11s0-.06,0-.06,0-.16,0-.22a.13.13,0,0,0,.1,0s0,.06.09.06a.29.29,0,0,0,.13-.16s0,0,0,0,.09-.23,0-.3a1.39,1.39,0,0,0,0-.15,1,1,0,0,1,.08-.23,1.57,1.57,0,0,1,.16,0A.23.23,0,0,0,9,16.25c0-.06,0-.14,0-.24a.53.53,0,0,0,.13-.16s0-.15,0-.22a.9.9,0,0,0,.13-.26.35.35,0,0,0,.11.09l.06-.06.13,0,.06.06a.26.26,0,0,0,0-.28.11.11,0,0,1,0-.07h.13A.25.25,0,0,0,9.69,15c-.16-.13-.36-.07-.55,0,0,0,0,.06,0,.09a.15.15,0,0,1-.1.06.11.11,0,0,1-.09,0c-.06,0-.09.1-.12.13s.06.1.09.13-.1,0-.13.06,0,0,0,.06h-.1s.07.08.07.14,0,.1-.06.1-.08-.07-.11-.07a.79.79,0,0,0-.23.16s.07,0,.1.06a.14.14,0,0,0,0,.1.86.86,0,0,1-.13,0H8a.62.62,0,0,1,0-.31,1.45,1.45,0,0,1,.16-.18.06.06,0,0,1-.06-.06.07.07,0,0,0-.07.06H7.94c0-.06,0-.15.06-.22s-.15-.13-.25-.16a.88.88,0,0,0-.28,0v.1s-.07,0-.08,0H7.26s0,.06,0,.09a.1.1,0,0,0-.06,0,.14.14,0,0,1,0,.1s.06.06.06.09-.1.08-.16.11-.13,0-.19.06-.14.07-.2.13a.66.66,0,0,1-.26,0,.26.26,0,0,0,0,.22c.07,0,.13,0,.13.1s-.06,0-.13,0l-.06.07c-.07-.1-.1-.2-.16-.29a.15.15,0,0,1,.1-.06A1.1,1.1,0,0,0,6,15.6s-.06.1-.13.13l-.12,0-.1-.1s0,0-.06.06,0,.1,0,.13-.13.13-.18.16-.15.1-.25.13l-.06.06A.35.35,0,0,1,5.16,16a.12.12,0,0,1,0-.1.1.1,0,0,1-.06,0s0,0-.07,0S5,16,5,16H4.91v-.12a.15.15,0,0,1,.06-.1c0-.06,0-.09,0-.16a.15.15,0,0,1,.16,0,.32.32,0,0,0,.22-.1v0a.1.1,0,0,0,0-.06.49.49,0,0,1,.23-.22h.07A.7.7,0,0,0,5.65,15a.41.41,0,0,0-.3-.3c-.09,0-.16.06-.25.12s0,.11,0,.15l0,0a1.09,1.09,0,0,0-.09-.21l.19,0a.2.2,0,0,0,0-.19C5,14.53,5,14.46,5,14.4s.1,0,.13.06l.1-.09c0-.06-.07-.13-.1-.17a.12.12,0,0,0,.1,0c.06.05.12.12.18.05s0-.17,0-.23L5.32,14a2.14,2.14,0,0,1-.22-.1v-.09s0-.06.06-.1a.29.29,0,0,1,.22.1,1.13,1.13,0,0,0,.11-.22s0,0,0-.06,0-.12,0-.21,0,0-.08-.07a.16.16,0,0,1-.19,0c0-.09.07-.18.13-.21a1.94,1.94,0,0,0,.17-.1h.07a.3.3,0,0,0,.15-.27.1.1,0,0,0-.06,0v-.25a1.36,1.36,0,0,1,.1-.21c.06-.06.09-.15.15-.22a.12.12,0,0,1,0-.1s0,0,.07-.06-.13-.33-.29-.36c.06-.09-.06-.19-.13-.22s-.11,0-.17,0a.12.12,0,0,1,0-.1l-.22.1a.24.24,0,0,0-.19-.13s.06,0,.06-.06L4.91,11l.19-.08a.21.21,0,0,0,0-.13.14.14,0,0,1-.1,0,.08.08,0,0,1,0-.06s0,0,0-.06.07,0,.1-.07S5,10.42,5,10.33a.35.35,0,0,0-.19-.27,1.06,1.06,0,0,0,.1-.12H4.78A3,3,0,0,0,5,9.41,2.17,2.17,0,0,0,5,9S5,9,5,8.92l-.09-.09V8.77s0,0-.06,0a.28.28,0,0,0,0-.13.15.15,0,0,0,0-.07s-.07,0-.07.07a.93.93,0,0,1-.33-.07l-.09,0v0h.1s.06,0,.09-.06l-.06-.06a1.11,1.11,0,0,1,.36-.08.42.42,0,0,1,0,.2s0,0,0,.06.19.07.25,0,.13-.06.22-.09,0-.06.06-.13l.15-.05s0,0,0-.06a.54.54,0,0,0,.31,0c.13,0,.3-.09.43,0a1.27,1.27,0,0,0,.35,0l.23-.09.1.1s0,0,.06,0V8.06a2.45,2.45,0,0,0,.62-.19.1.1,0,0,0,.06,0l.3-.22c.16-.08.28-.24.44-.27a.42.42,0,0,1,.1.12s.06,0,.11.07h.06s0,.05-.06.08a.1.1,0,0,1,.06,0l.19,0s0,.06,0,.1-.1.15-.1.24a.27.27,0,0,0,.1.26c.06.08.15,0,.25,0s.2-.11.27-.23.06.1.1.12,0,0,.06,0,0,.06,0,.1,0,0,.06,0a2.27,2.27,0,0,0,.22-.22.14.14,0,0,1,.1,0C10,8,10,8,10.09,7.93l.32-.09a.3.3,0,0,0,0,.16l.18-.1a.15.15,0,0,1-.06-.1.35.35,0,0,1,.18,0l.09.06.06-.06s.06,0,.1,0a0,0,0,0,0,0,0v.06s.06,0,.1.06l.18,0s0,0,.07.06a.88.88,0,0,0,.2-.12c.13-.06.19-.21.32-.24a.35.35,0,0,1,.3,0c.06,0,0,.07-.07.07H12a.18.18,0,0,0,.06.1h.16a.23.23,0,0,1-.12.12s0,.06,0,.1h.22s.06,0,.1,0,0,.06-.07.06.06,0,.1.07a.08.08,0,0,1,0,.06.11.11,0,0,1,.07,0l.1-.1s0,0,.06.07h-.07V8.3s.07,0,.07,0l.07-.11V8.3a.56.56,0,0,1,.16,0c0,.05,0,.08,0,.15a.28.28,0,0,1,.13-.1v.06a.54.54,0,0,1,.22,0v.13a.14.14,0,0,1,.1,0V8.48l.16-.09a1.34,1.34,0,0,0,.07-.18.44.44,0,0,1,0,.21.14.14,0,0,0-.12.06.2.2,0,0,1,0,.06h.13a1.47,1.47,0,0,1-.22.1c-.05,0-.08.1-.11.16a.07.07,0,0,0,.07.06c-.07.06-.2.06-.2.14s.1.16.13.25h.1s-.07.07-.07.1h.08c-.05,0-.14.06-.17.16a.3.3,0,0,1,.16,0,.31.31,0,0,1-.13.06.11.11,0,0,1,0,.08h.1s0,.07,0,.1,0-.06.05-.09v.12s.07.1.1.13.16,0,.22,0a.11.11,0,0,0,0,.07s.06,0,.1,0,0,0,0,.07a.09.09,0,0,1,.12.12l.18-.1s0,.07,0,.1,0,0,0,.07l-.18,0a0,0,0,0,0,0,0,.72.72,0,0,0-.34.11c.06.16.15.38.34.41,0,0,0-.06.05-.1a.36.36,0,0,0,.25.13.51.51,0,0,0,.13-.12c.06,0,.1,0,.13,0s.12-.16.2-.19.16-.15.16-.23-.1-.13-.13-.19,0-.06.07-.06h.09a1.62,1.62,0,0,0,.28-.2s0-.09,0-.13a.3.3,0,0,1,.13-.2h.27a.1.1,0,0,0,.06,0,.1.1,0,0,1,0-.06c.06,0,.13-.1.16,0a.76.76,0,0,1-.16.09s.06,0,.1.07v.06h.09a.23.23,0,0,1-.16.11c-.09.06-.22,0-.31.09l.09.1s0,.06,0,.09h.13a.16.16,0,0,0,.06-.12s.06,0,.1,0,0,0,0-.06.1,0,.16-.06.11,0,.21,0a.28.28,0,0,0,.16,0,.42.42,0,0,0,.18-.38.2.2,0,0,0-.12-.12c-.06-.07-.16,0-.22-.07S16,9,15.93,8.92l.17-.09a2,2,0,0,1,.19-.29c.06,0,.12,0,.19,0a.25.25,0,0,0,.11-.16s-.11-.1-.08-.15a1.25,1.25,0,0,1,.24-.18c.12,0,.22-.16.37-.22,0,0,0-.1,0-.1a.46.46,0,0,0,.14-.17c0-.07,0-.1,0-.13l0,0c0-.12,0-.22,0-.32s-.11-.06-.15-.12H17a1.09,1.09,0,0,1,.3-.24.55.55,0,0,1,.38.16c0,.06-.06.08-.06.11s0,.06.06.1a.1.1,0,0,1,.09,0,.33.33,0,0,1,.21.07l-.1.09a.35.35,0,0,0,.2,0s-.13.07-.1.13.16.06.22.06a.86.86,0,0,1,.13,0c.1,0,.16-.06.16-.12l.14-.1a.33.33,0,0,0,.19-.22s0-.08-.07-.11A1,1,0,0,0,19,6.7a1.59,1.59,0,0,1,.36-.32S19.5,6.35,19.53,6.32Z"/></g></g></g></svg>