<svg xmlns="http://www.w3.org/2000/svg" viewBox="0 0 178.98 46.26"><title>logo-horizontal</title><g id="Layer_2" data-name="Layer 2"><g id="flamingo-logo"><g id="logo-horizontal"><path d="M14.1,7.14A2.11,2.11,0,1,1,12,9.25a2.1,2.1,0,0,1,2.1-2.11m0-1a3.1,3.1,0,1,0,3.1,3.1,3.1,3.1,0,0,0-3.1-3.1Z"/><path d="M21.48,21.26l-5.55,11.1a13.3,13.3,0,0,1,1.63-1.05L22.77,20.9A9.9,9.9,0,0,0,21.48,21.26Z"/><path d="M29.26,21.2,24.88,30c.35,0,.69.09,1,.16l4.29-8.57C29.89,21.41,29.58,21.3,29.26,21.2Z"/><path d="M35,25.13l-3.78,7.55a9.85,9.85,0,0,1,.77.68L35.7,26C35.49,25.71,35.27,25.42,35,25.13Z"/><path d="M26.41,30.23a12.42,12.42,0,0,1,4.46,2.13l.45-.91a13.41,13.41,0,0,0-4.46-2.13Z"/><path d="M23.22,21.12l-.39.78a11.63,11.63,0,0,1,5.5.06l.44-.91a12.57,12.57,0,0,0-5.39-.27Z"/><path d="M30.64,21.76l-.43.86a11.57,11.57,0,0,1,3.31,2.32c.24.24.47.49.69.74l.38-.77.1-.19a12.48,12.48,0,0,0-4-3Z"/><path d="M15,33.16l.51-1L16,31.09a13.88,13.88,0,0,0-1.94,1.57,11.32,11.32,0,0,1,3.33-7.72,11.73,11.73,0,0,1,2.69-2l.72-1.42a12.41,12.41,0,0,0-7.55,13.62A12,12,0,0,1,15,33.16Z"/><path d="M36,26.5l-.53,1.06a11.48,11.48,0,0,1,.44,10,13.38,13.38,0,0,0-3.06-4.75l-.4.8-.07.15a12.35,12.35,0,0,1,3.2,6.39A12.39,12.39,0,0,0,36,26.5Z"/><path d="M24.44,29.72l.39-.78a13.77,13.77,0,0,0-5.87.68L18.3,31a12.27,12.27,0,0,1,5.1-1.09q.48,0,1,0Z"/><path d="M9.88,17.9l-.63-1.19C7.34,13.16,8,11.22,8.06,11.14l0-.06C8.69,9.92,11.65,7.29,12,7l.66.74A27,27,0,0,0,9,11.5a6,6,0,0,0,.6,3.62,7,7,0,0,1,3.46-4l.39.92c-2.48,1-3.25,4.52-3.26,4.56Z"/><path d="M9.61,15.79a9.49,9.49,0,0,1,1.29-2.61,5,5,0,0,1-1.65-2.45,4,4,0,0,0-.49.68C8.71,11.55,8.3,13.06,9.61,15.79Z"/><path d="M23.13,1A22.16,22.16,0,1,1,7.48,7.48,22.15,22.15,0,0,1,23.13,1m0-1A23.13,23.13,0,1,0,46.26,23.13,23.14,23.14,0,0,0,23.13,0Z"/><path d="M16.26,43.14h0a1,1,0,0,1,.64-1.24h0l6.87-2.18a4.89,4.89,0,0,0,3.33-3.56l1.32-5.7,1,.22-1.33,5.7a5.84,5.84,0,0,1-4,4.28Z"/><path d="M28.43,30.45l1,.23-1.32,5.7a5.91,5.91,0,0,1-4,4.28l-7.82,2.48a1,1,0,0,1,.65-1.25h0l6.88-2.18a4.88,4.88,0,0,0,3.32-3.56l1.32-5.7"/><path d="M23.54,39.27l.09,0h0a4.34,4.34,0,0,0,.91-.4,12.11,12.11,0,0,0-.78-4.62l-1.91-4.91-.93.36,1.92,4.9A11.25,11.25,0,0,1,23.54,39.27Z"/><path d="M24.23,41.14l-1,.3-.61,4.26,1,.14.68-4.73Z"/><path d="M16.64,7.47l-.43.25a2.64,2.64,0,0,1,.5,1.53,4.23,4.23,0,0,1-.05.5c1.67,4,1.05,7.45-1.88,10.51a12.33,12.33,0,0,0-3.47,11.45,35.87,35.87,0,0,0,1.49,3.65l0-.15A12.6,12.6,0,0,1,12.58,33c0-.22,0-.44,0-.65-.18-.44-.3-.79-.33-.88A11.34,11.34,0,0,1,15.49,21h0a10.15,10.15,0,0,0,3.05-6.55A12.82,12.82,0,0,0,16.64,7.47Z"/><path d="M63,7.86V10H56v4.85h4.85V17H56v7H53.83V7.86Z"/><path d="M66.34,7.86V24H64.19V7.86Z"/><path d="M73.28,24a5.4,5.4,0,1,1,3.24-9.71V13.25h2.16V24H77.6L76.52,23A5.27,5.27,0,0,1,73.28,24Zm0-2.16A3.24,3.24,0,1,0,71,20.93,3.11,3.11,0,0,0,73.28,21.88Z"/><path d="M88.26,16.34a3.23,3.23,0,0,0-5.5,2.18V24H80.61V13.25h1.07l1.08,1.08A5.39,5.39,0,0,1,86,13.25a5.19,5.19,0,0,1,4.31,2.16,5.15,5.15,0,0,1,4.31-2.16A5.38,5.38,0,0,1,100,18.61V24H97.86V18.65a3.24,3.24,0,1,0-6.47,0V24H89.23V18.65A3,3,0,0,0,88.26,16.34Z"/><path d="M103,7.86a1.33,1.33,0,0,1,1.32,1.32,1.15,1.15,0,0,1-.39.9,1.22,1.22,0,0,1-.93.39,1.32,1.32,0,0,1-1.29-1.29,1.22,1.22,0,0,1,.39-.93A1.19,1.19,0,0,1,103,7.86Zm1.08,5.39V24h-2.15V13.25Z"/><path d="M108.27,18.52V24h-2.16V13.25h1.08l1.08,1.08a5.39,5.39,0,0,1,8.62,4.28V24h-2.15V18.65a3.24,3.24,0,0,0-6.47-.13Z"/><path d="M126.29,14.87h8.09c0,3-.8,5.22-2.37,6.79a8.09,8.09,0,1,1,0-11.43h0l-1.53,1.54a5.93,5.93,0,1,0,0,8.38l0,0a5.69,5.69,0,0,0,1.64-3.1h-5.83Z"/><path d="M140.85,13.25A5.39,5.39,0,1,1,137,14.83,5.19,5.19,0,0,1,140.85,13.25Zm0,8.63a3.24,3.24,0,1,0-2.28-.95A3.11,3.11,0,0,0,140.85,21.88Z"/><path d="M154.78,24l-3.15-4L150,22.14V24h-2.16V7.86H150V18.65l4.27-5.4H157l-4,5.07L157.54,24Z"/><path d="M159.9,7.86a1.33,1.33,0,0,1,1.32,1.32,1.15,1.15,0,0,1-.39.9,1.22,1.22,0,0,1-.93.39,1.31,1.31,0,0,1-1.29-1.29,1.22,1.22,0,0,1,.39-.93A1.19,1.19,0,0,1,159.9,7.86ZM161,13.25V24h-2.16V13.25Z"/><path d="M167.17,13.25v2.16H165v4a2.39,2.39,0,0,0,.72,1.73,2.31,2.31,0,0,0,1.7.71V24a4.39,4.39,0,0,1-3.23-1.34,4.44,4.44,0,0,1-1.34-3.26V7.86H165v5.39Z"/><path d="M175.85,20.93l1.53,1.53a5.39,5.39,0,1,1,0-7.63,5.21,5.21,0,0,1,1.49,4.89H170.5a3.26,3.26,0,0,0,5.34,1.22Zm-4.57-4.57a3.7,3.7,0,0,0-.78,1.21h6.12a3.09,3.09,0,0,0-.77-1.21,3.24,3.24,0,0,0-4.57,0Z"/><path d="M88.46,38.4a3.24,3.24,0,1,1,1.94-5.82v-.65h1.29V38.4H91l-.64-.65A3.11,3.11,0,0,1,88.46,38.4Zm0-1.29a1.95,1.95,0,1,0,0-3.89,1.95,1.95,0,0,0,0,3.89Z"/><path d="M94.46,28.69V38.4H93.17V28.69Z"/><path d="M96.64,28.69a.8.8,0,0,1,.79.79.71.71,0,0,1-.23.55.77.77,0,0,1-.56.23.79.79,0,0,1-.77-.78.78.78,0,0,1,.23-.55A.75.75,0,0,1,96.64,28.69Zm.65,3.24V38.4H96V31.93Z"/><path d="M103,38.4,101.11,36l-1,1.24V38.4H98.83V28.69h1.29v6.47l2.56-3.23h1.66l-2.4,3,2.71,3.43Z"/><path d="M106.4,28.69a.81.81,0,0,1,.79.79A.72.72,0,0,1,107,30a.75.75,0,0,1-.55.23.79.79,0,0,1-.78-.78.75.75,0,0,1,.23-.55A.72.72,0,0,1,106.4,28.69Zm.64,3.24V38.4h-1.29V31.93Z"/><path d="M111.71,38.4V28.69H113v3.89A3.24,3.24,0,1,1,115,38.4a3.11,3.11,0,0,1-1.94-.65l-.65.65ZM115,33.22a1.95,1.95,0,1,0,1.37.57A1.91,1.91,0,0,0,115,33.22Z"/><path d="M123.83,36.54l.91.92a3.22,3.22,0,1,1,0-4.55,3.18,3.18,0,0,1,.86,2.9h-5a2.15,2.15,0,0,0,.46.73,2,2,0,0,0,2.74,0Zm-2.75-2.75a2.15,2.15,0,0,0-.46.73h3.67a1.75,1.75,0,0,0-.46-.73,1.94,1.94,0,0,0-2.74,0Z"/><path d="M130,38.4a3.24,3.24,0,1,1,2-5.82v-.65h1.29V38.4h-.65l-.64-.65A3.12,3.12,0,0,1,130,38.4Zm0-1.29a1.95,1.95,0,1,0-1.94-2,2,2,0,0,0,.57,1.38A1.91,1.91,0,0,0,130,37.11Z"/><path d="M140,32.87l-.92.92a1.94,1.94,0,1,0,0,2.75h0l.92.92a3.24,3.24,0,1,1,0-4.59Z"/><path d="M145.73,33.79a1.9,1.9,0,0,0-1.37-.57,2,2,0,0,0-1.94,1.87V38.4h-1.29V28.69h1.29v3.89a3.26,3.26,0,0,1,2-.65,3.23,3.23,0,0,1,3.23,3.22h0V38.4h-1.29V35.16A1.92,1.92,0,0,0,145.73,33.79Z"/><rect x="58.49" y="34.56" width="22.09" height="1.21"/><rect x="152.26" y="34.56" width="22.07" height="1.21"/></g></g></g></svg>