<svg xmlns="http://www.w3.org/2000/svg" viewBox="0 0 49.05 49.05"><title>logo-mark</title><g id="Layer_2" data-name="Layer 2"><g id="flamingo-logo"><g id="logo-mark"><path d="M15,7.57A2.24,2.24,0,1,1,12.72,9.8,2.24,2.24,0,0,1,15,7.57m0-1.05A3.29,3.29,0,1,0,18.24,9.8,3.28,3.28,0,0,0,15,6.52Z"/><path d="M22.78,22.54,16.89,34.31a15,15,0,0,1,1.73-1.11l5.52-11A12.42,12.42,0,0,0,22.78,22.54Z"/><path d="M31,22.48l-4.64,9.27a9.91,9.91,0,0,1,1.09.18L32,22.84A8.33,8.33,0,0,0,31,22.48Z"/><path d="M37.15,26.64l-4,8c.28.24.55.48.81.73l3.89-7.79C37.63,27.26,37.4,27,37.15,26.64Z"/><path d="M28,32.05a13,13,0,0,1,4.73,2.26l.48-1a14.28,14.28,0,0,0-4.73-2.27Z"/><path d="M24.61,22.39l-.41.83a12.34,12.34,0,0,1,5.83.06l.48-1A13.15,13.15,0,0,0,27,21.85a13.45,13.45,0,0,0-2.21.18Z"/><path d="M32.48,23.07,32,24a11.89,11.89,0,0,1,3.51,2.45c.26.25.5.52.73.79l.41-.82.1-.2a13.39,13.39,0,0,0-4.28-3.16Z"/><path d="M15.88,35.15l.54-1.08L17,33a14.27,14.27,0,0,0-2.07,1.65,12,12,0,0,1,3.54-8.18,11.68,11.68,0,0,1,2.85-2.12l.76-1.51a13.19,13.19,0,0,0-8,14.44A13.58,13.58,0,0,1,15.88,35.15Z"/><path d="M38.19,28.1l-.57,1.12a12.13,12.13,0,0,1,.47,10.57,14,14,0,0,0-3.24-5l-.42.85-.08.16a13.05,13.05,0,0,1,3.4,6.76,13.12,13.12,0,0,0,.44-14.43Z"/><path d="M25.91,31.52l.42-.83a12.79,12.79,0,0,0-1.52-.08,14,14,0,0,0-4.7.8l-.71,1.41a13,13,0,0,1,5.41-1.16c.34,0,.68,0,1,0Z"/><path d="M10.48,19,9.8,17.72c-2-3.76-1.28-5.83-1.25-5.91l0-.06c.64-1.23,3.78-4,4.13-4.34l.7.79a27.89,27.89,0,0,0-3.87,4A6.27,6.27,0,0,0,10.16,16a7.35,7.35,0,0,1,3.67-4.27l.41,1c-2.63,1.1-3.45,4.8-3.46,4.84Z"/><path d="M10.19,16.74A10.18,10.18,0,0,1,11.55,14a5.5,5.5,0,0,1-1.75-2.6,4.63,4.63,0,0,0-.52.72C9.24,12.25,8.8,13.85,10.19,16.74Z"/><path d="M24.53,1.05A23.44,23.44,0,0,1,48,24.53,23.45,23.45,0,0,1,7.93,41.12a23.46,23.46,0,0,1-5-25.73A23.47,23.47,0,0,1,24.53,1.05m0-1A24.53,24.53,0,1,0,49.05,24.53,24.53,24.53,0,0,0,24.53,0Z"/><path d="M17.24,45.74h0a1.05,1.05,0,0,1,.68-1.32l7.3-2.31a5.18,5.18,0,0,0,3.52-3.77l1.4-6.05,1,.24-1.41,6a6.21,6.21,0,0,1-4.23,4.54Z"/><path d="M30.14,32.29l1,.24-1.41,6a6.21,6.21,0,0,1-4.23,4.54l-8.29,2.63a1.05,1.05,0,0,1,.68-1.32l7.3-2.31a5.18,5.18,0,0,0,3.52-3.77l1.4-6.05"/><path d="M25,41.64l.1,0h0a4.69,4.69,0,0,0,1-.43,13.05,13.05,0,0,0-.82-4.9l-2-5.2-1,.38,2,5.2A12.07,12.07,0,0,1,25,41.64Z"/><path d="M25.69,43.61l-1,.33L24,48.45l1,.15.72-5Z"/><path d="M17.64,7.92l-.45.26a2.77,2.77,0,0,1,.52,1.62,3.07,3.07,0,0,1-.05.53c1.78,4.24,1.12,7.9-2,11.15A13.09,13.09,0,0,0,12,33.62a41.66,41.66,0,0,0,1.57,3.88l0-.16a14.37,14.37,0,0,1-.2-2.36c0-.22,0-.45,0-.68-.18-.47-.32-.83-.34-.93a12,12,0,0,1,3.41-11.15h0a10.75,10.75,0,0,0,3.24-6.94A13.59,13.59,0,0,0,17.64,7.92Z"/></g></g></g></svg>