<svg xmlns="http://www.w3.org/2000/svg" viewBox="0 0 24.56 24.57"><defs><style>.cls-1,.cls-2,.cls-3{fill:none;stroke:#000;}.cls-1,.cls-2{stroke-miterlimit:10;}.cls-1,.cls-3{stroke-width:0.7px;}.cls-3{stroke-linejoin:round;}.cls-4{fill-opacity:0.9;}</style></defs><title>map-at</title><g id="Layer_2" data-name="Layer 2"><g id="social-bold"><g id="map-at"><path class="cls-1" d="M18.45,5.4A3.58,3.58,0,0,0,14.86,9c0,2.14,2.26,5.08,3.2,6.2a.5.5,0,0,0,.78,0C19.77,14.06,22,11.12,22,9A3.58,3.58,0,0,0,18.45,5.4Zm0,4.86a1.28,1.28,0,1,1,0-2.56,1.28,1.28,0,0,1,0,2.56Z"/><path class="cls-1" d="M3.54,4.15A11.79,11.79,0,0,0,.82,8.92a12.18,12.18,0,0,0,.83,8.83A13.07,13.07,0,0,0,5.32,22a12.29,12.29,0,0,0,5.58,2.12,11.91,11.91,0,0,0,10.43-4.06,10.6,10.6,0,0,0,1.77-2.75,11.62,11.62,0,0,0,1.11-5.09A12.35,12.35,0,0,0,23,6.86a13.25,13.25,0,0,0-3.67-4.28A12.21,12.21,0,0,0,12.35.35a11.94,11.94,0,0,0-4.42.81,11.8,11.8,0,0,0-4.39,3Z"/><line class="cls-2" x1="19.38" y1="5.4" x2="20.78" y2="4.19"/><line class="cls-3" x1="2.89" y1="19.65" x2="14.86" y2="9.3"/><line class="cls-3" x1="9.35" y1="14.04" x2="17.29" y2="23.23"/><path class="cls-4" d="M8.27,4.24A3.47,3.47,0,0,0,4.56,8a3.53,3.53,0,0,0,3.56,3.22H9.4a.35.35,0,0,0,.35-.35.35.35,0,0,0-.35-.34H8.13a2.87,2.87,0,0,1-2.8-2.1A2.78,2.78,0,0,1,8.7,5a2.86,2.86,0,0,1,2.09,2.8V8.2a.52.52,0,1,1-1,0V7.76A1.77,1.77,0,0,0,8.27,6a1.73,1.73,0,1,0,1,2.94,1.3,1.3,0,0,0,1.49.42,1.24,1.24,0,0,0,.75-1.16V7.81A3.54,3.54,0,0,0,8.27,4.24ZM8,8.74A1,1,0,0,1,8,6.66,1,1,0,1,1,8,8.74Z"/></g></g></g></svg>